# xmcd
#
# Track frame offsets:
#	150
#	19964
#	60384
#	91613
#	112189
#	130829
#	159758
#	183844
#	207807
#	228358
#	247413
#	276141
#	289219
#	303391
#	315002
#	333686
#
# Disc length: 4770 seconds
#
# Revision: 1
# Processed by: cddbd v1.5.2PL0 Copyright (c) Steve Scherf et al.
# Submitted via: EasyCDDAExtractor 8.2.3.1
#
DISCID=d912a010
DTITLE=Various Artist - Akella Presents - Blues-Rock - vol.22  CD2
DYEAR=2010
DGENRE=Blues
TTITLE0=ROB ORLEMANS - Fuzzbox Boogie
TTITLE1=GOV'T MULE - Endless Parade
TTITLE2=MICHAEL KATON - Need It Awful Dad
TTITLE3=HANK DAVISON BAND - Face Of A Wanted Man
TTITLE4=SOUTHERN GENTLEMEN - Reflections
TTITLE5=GWYN ASHTON - Ball and Chain
TTITLE6=THUNDER - Fade Into the Sun
TTITLE7=BLOODLINE - So Far Away
TTITLE8=ROB TOGNONI - Shakin' The Devil's Hand
TTITLE9=RHINO BUCKET - Bar Time
TTITLE10=BLINDSTONE - Sleepin' Alone
TTITLE11=TONY C. and The TRUTH - Fight for Your Right (To Party)
TTITLE12=WILD T and SPIRIT - It Ain't Where You're From
TTITLE13=PHIL BROWN - Rolling and Tumbling
TTITLE14=BUDDAH HEADS - Train Train
TTITLE15=GEORGE ROSS-WATT and The BUSINESS - Home Of The Wolf
EXTD=
EXTT0=
EXTT1=
EXTT2=
EXTT3=
EXTT4=
EXTT5=
EXTT6=
EXTT7=
EXTT8=
EXTT9=
EXTT10=
EXTT11=
EXTT12=
EXTT13=
EXTT14=
EXTT15=
PLAYORDER=
